<svg width="71" height="74" viewBox="0 0 71 74" fill="none" xmlns="http://www.w3.org/2000/svg">
<path d="M70 9L59 1.5H12L1.5 9L1 70L1.5 71.5L2.5 72.5L4 73H67L68.5 72.5L69.5 71.5L70 70V9Z" fill="#A59315" stroke="#1D2D35" stroke-width="2" stroke-linejoin="round"/>
<path d="M11 53L2 72" stroke="#1D2D35" stroke-width="2"/>
<path d="M60 53L69 71" stroke="#1D2D35" stroke-width="2"/>
<path d="M10 51.8846V4.11538L10.5204 2.55769L11.5612 1.51923L13.1224 1H57.8775L59.4388 1.51923L60.4796 2.55769L61 4.11538V51.8846L60.4796 53.4423L59.6339 54.4808L57.8775 55H55.7959H13.1224L11.5612 54.4808L10.5204 53.4423L10 51.8846Z" fill="#FFE000" stroke="#1D2D35" stroke-width="2" stroke-linejoin="round"/>
<path d="M49.5155 36.3182C48.7339 36.3182 48.126 35.7103 48.0392 34.9287C47.5181 27.4604 43.4366 16.9526 35.8814 16.9526C29.6288 16.9526 24.9394 21.2947 21.9 29.8919C21.6395 30.6735 20.771 31.1077 19.9895 30.7603C19.2079 30.4998 18.7737 29.6314 19.1211 28.9367C22.5947 19.0368 28.2394 14 35.8814 14C45.8681 14 50.4707 26.6788 50.9918 34.755C51.0786 35.5366 50.4707 36.3182 49.6023 36.3182H49.5155Z" fill="#1D2D35"/>
<path d="M35.534 41.7892C30.4972 41.7892 25.6341 39.6181 22.2473 35.7971C21.8131 35.4498 21.7263 34.8419 21.9 34.3208C22.8552 31.8024 25.3736 25.9841 28.5867 25.8972C30.2367 25.8972 31.4525 27.1999 32.4077 28.2419C32.6683 28.5893 33.1025 29.0235 33.4498 29.284C34.2314 28.5025 35.7077 26.0709 36.8366 23.5525C37.184 22.771 38.0524 22.5104 38.834 22.8578C39.6155 23.2052 39.8761 24.0736 39.5287 24.8551C36.0551 32.4103 34.2314 32.4103 33.5367 32.4103C32.1472 32.4103 31.192 31.3682 30.2367 30.3261C29.8025 29.8919 28.9341 28.9367 28.5867 28.9367C27.8052 29.0235 26.1552 31.7156 25.0262 34.5813C27.892 37.4471 31.7998 39.0102 35.7945 38.9234C39.2682 38.9234 45.4339 38.3155 47.9523 34.5813C47.2576 27.113 43.176 17.0394 35.7945 17.0394C35.013 17.0394 34.3182 16.3447 34.3182 15.5631C34.3182 14.7816 35.013 14 35.8814 14C45.8681 14 50.4707 26.6788 50.9917 34.755C50.9917 35.0156 50.9049 35.3629 50.8181 35.6234C48.4733 39.6181 43.176 41.876 35.8814 41.876C35.7945 41.7892 35.6209 41.7892 35.534 41.7892Z" fill="#1D2D35"/>
</svg>
